<?xml version="1.0" encoding="UTF-8"?> <!-- Generator: Adobe Illustrator 25.2.1, SVG Export Plug-In . SVG Version: 6.00 Build 0) --> <svg xmlns="http://www.w3.org/2000/svg" xmlns:xlink="http://www.w3.org/1999/xlink" version="1.1" id="Layer_1" x="0px" y="0px" viewBox="0 0 150 70" style="enable-background:new 0 0 150 70;" xml:space="preserve"> <style type="text/css"> .st0{fill:#0A9600;} </style> <path class="st0" d="M28.5,47v10h-3.7V47h-3.7v-3.2h11.1V47H28.5z M40.8,53h-5.8c0,0.9,0.7,1.6,1.5,1.6c0.1,0,0.1,0,0.2,0 c0.9,0,1.8-0.2,2.6-0.7l1.3,2.2c-1.2,0.7-2.6,1.1-4,1.1c-3,0-4.6-2.1-4.6-5.2c0-3.4,1.9-5.2,4.5-5.2c2.6,0,4.4,1.8,4.4,5.5 C40.8,52.6,40.8,52.8,40.8,53L40.8,53z M36.3,49.4c-0.8,0-1.2,0.5-1.3,1.5h2.8C37.6,49.9,37.3,49.4,36.3,49.4L36.3,49.4z M47.1,57.2 c-2.9,0-4.6-1.8-4.6-5.2c0-3,1.5-5.1,4.7-5.1c1.6-0.1,3.1,0.8,3.8,2.2l-2.3,1.8c-0.5-0.9-0.8-1.3-1.5-1.3s-1.3,0.9-1.3,2.4 s0.5,2.4,1.4,2.4c0.6,0,1.1-0.4,1.7-1.3l2.2,1.7C49.9,56.5,48.9,57.2,47.1,57.2L47.1,57.2z M58.7,57v-5.6c0-1.3-0.4-1.6-1.1-1.6 s-1.2,0.3-1.2,1.6V57H53V44.6l3.4-1.4v4.5c0.7-0.6,1.6-0.9,2.5-0.9c2.2,0,3.2,1.5,3.2,4.1V57L58.7,57z"></path> <path d="M70.3,57.2c-3.9,0-6-2.9-6-6.8c0-4.2,2.5-6.8,6-6.8c3.2,0,4.5,1.4,5.4,3.9l-3.3,1.3c-0.5-1.2-0.9-2-2.1-2 c-1.5,0-2.2,1.5-2.2,3.6s0.6,3.6,2.2,3.6c1.2,0,1.6-0.6,2.4-1.9l3.1,1.7C74.8,56,72.6,57.3,70.3,57.2L70.3,57.2z M84.1,50.8 c-0.4-0.5-1-0.8-1.6-0.8c-0.8,0-1.3,0.4-1.3,1.6V57h-3.4v-9.9h3.4v0.7c1-1,2.5-1.2,3.7-0.5L84.1,50.8z M92.2,57v-0.7 c-0.7,0.6-1.6,0.9-2.5,0.9c-2.2,0-3.2-1.5-3.2-4.1v-6h3.4v5.6c0,1.3,0.4,1.6,1.1,1.6s1.1-0.3,1.1-1.6v-5.6h3.4V57L92.2,57z M103.8,57v-5.6c0-1.3-0.4-1.6-1.1-1.6s-1.2,0.3-1.2,1.6V57h-3.4v-9.9h3.4v0.7c0.7-0.6,1.6-0.9,2.5-0.9c2.2,0,3.2,1.5,3.2,4.1V57 L103.8,57z M113.8,57.2c-2.9,0-4.7-1.8-4.7-5.2c0-3,1.6-5.1,4.7-5.1c1.6,0,3.1,0.8,3.8,2.2l-2.3,1.8c-0.5-0.9-0.8-1.3-1.5-1.3 s-1.3,0.9-1.3,2.4s0.5,2.4,1.4,2.4c0.6,0,1.1-0.4,1.7-1.3l2.2,1.7C116.7,56.5,115.6,57.2,113.8,57.2L113.8,57.2z M125.4,57v-5.6 c0-1.3-0.4-1.6-1.1-1.6s-1.2,0.3-1.2,1.6V57h-3.4V44.6l3.4-1.4v4.5c0.7-0.6,1.6-0.9,2.5-0.9c2.2,0,3.2,1.5,3.2,4.1V57L125.4,57z"></path> <path class="st0" d="M49.5,12.8v7.9h7.9v15.9h7.9V20.7h7.9v-7.9H49.5z M81.2,28.6v-7.9h-7.9v15.9h23.8v-7.9L81.2,28.6z M81.2,12.8 h15.9v7.9H81.2V12.8z"></path> </svg> 