<?xml version="1.0" encoding="UTF-8"?> <!-- Generator: Adobe Illustrator 25.2.1, SVG Export Plug-In . SVG Version: 6.00 Build 0) --> <svg xmlns:cc="http://creativecommons.org/ns#" xmlns:dc="http://purl.org/dc/elements/1.1/" xmlns:rdf="http://www.w3.org/1999/02/22-rdf-syntax-ns#" xmlns:svg="http://www.w3.org/2000/svg" xmlns="http://www.w3.org/2000/svg" xmlns:xlink="http://www.w3.org/1999/xlink" version="1.1" id="svg38" x="0px" y="0px" viewBox="0 0 216 219" style="enable-background:new 0 0 216 219;" xml:space="preserve"> <style type="text/css"> .st0{fill:#FF0224;} .st1{fill:#FFFFFF;} </style> <path id="path2" class="st0" d="M0.1,0L216,0c-0.1,86.6,0,132.3,0,219H0V0 M129,26.6c-3.8,1.6-7.4,3.8-10.3,6.8 c-3.5,3.6-5.8,8.2-6.8,13.1c-0.7,3.1-0.9,6.2-0.8,9.3c0,35.9,0,71.7,0,107.6c-0.1,4.7,0.6,9.6,2.4,14c1.3,3.3,3.4,6.4,6,8.8 c4.1,4,9.5,6.4,15,7.9c5.9,1.6,12,2.2,18.1,2.3c5.9,0.1,11.8-0.3,17.5-1.7c4.5-1.1,8.9-3,12.5-5.9c3.5-2.8,6.1-6.6,7.6-10.9 c1.6-4.5,2.2-9.3,2.2-14c0-13.9,0-27.8,0-41.7c-11.4,0-22.7,0-34.1,0c0,14,0,28.1,0,42.1c0,1.7,0,3.5-0.6,5.1 c-0.7,1.6-2.5,2.5-4.2,2.6c-1.7,0.1-3.6,0-4.8-1.3c-1.2-1.2-1.5-3-1.6-4.6c0-37.7,0-75.4,0-113c0-1.4,0.2-2.8,1-3.9 c0.9-1.4,2.5-2.1,4.1-2.1c1.7-0.1,3.7,0.3,4.8,1.7c1.2,1.5,1.3,3.6,1.3,5.4c0,7.2,0,14.4,0,21.7c0,5.5-0.1,11,0,16.6 c11.4,0,22.7,0,34.1,0c0-12.7,0-25.5,0-38.2c0-5-0.8-10-2.7-14.6c-1.6-3.6-3.9-6.8-7-9.2c-3.5-2.9-7.8-4.7-12.1-5.9 c-5.4-1.4-11.1-1.9-16.7-1.9C145.4,22.6,136.8,23.4,129,26.6 M23.7,23.8c0,57.3,0,114.6,0,171.9c12,0,24,0,36,0 c0-18.9,0-37.8,0-56.7c0-3.3-0.1-6.6,0-9.9c1.6,0,3.3,0,4.9,0c4,0,8,0.1,11.9-0.3c4.1-0.5,8.2-1.4,12-3.1c2.6-1.2,5.1-2.8,7.1-4.9 c3.4-3.3,5.5-7.6,6.6-12.1c1.2-4.5,1.3-9.2,1.3-13.9c0-12.6,0-25.3,0-37.9c0-3.4-0.1-6.8-0.6-10.2c-0.9-5.4-2.9-10.7-6.7-14.7 c-2.8-3.1-6.6-5.2-10.5-6.5c-5.6-1.9-11.5-2.4-17.3-2.3c-14.8,0-29.7,0-44.5,0C23.8,23.4,23.7,23.7,23.7,23.8"></path> <path id="path4" class="st0" d="M59.7,48.1c2.8,0,5.8,0.1,8.3,1.6c1.6,0.9,2.5,2.6,2.9,4.4c0.4,1.8,0.3,3.6,0.4,5.4 c0,11.3,0,22.7,0,34c0,2.5,0,5.1-1.3,7.2c-1.2,2-3.6,2.9-5.8,3.2c-1.5,0.2-3,0.3-4.5,0.3c-0.1-13.1,0-26.2,0-39.3 C59.7,59.3,59.6,53.7,59.7,48.1z"></path> <path id="path15" class="st1" d="M129,26.6c7.9-3.2,16.4-4,24.9-4.1c5.6,0,11.2,0.5,16.7,1.9c4.4,1.2,8.6,3,12.1,5.9 c3.1,2.4,5.4,5.7,7,9.2c2,4.6,2.7,9.6,2.7,14.6c0,12.7,0,25.5,0,38.2c-11.4,0-22.7,0-34.1,0c-0.1-5.5,0-11,0-16.6 c0-7.2,0-14.4,0-21.7c0.1-1.9,0-3.9-1.3-5.4c-1.2-1.4-3.1-1.8-4.8-1.7c-1.6,0-3.3,0.7-4.1,2.1c-0.8,1.1-1,2.6-1,3.9 c0,37.7,0,75.4,0,113c0.1,1.6,0.3,3.4,1.6,4.6c1.2,1.3,3.2,1.4,4.8,1.3c1.7-0.1,3.5-1,4.2-2.6c0.7-1.6,0.7-3.3,0.6-5.1 c0-14,0-28.1,0-42.1c11.4,0,22.7,0,34.1,0c0,13.9,0,27.8,0,41.7c0,4.7-0.5,9.5-2.2,14c-1.5,4.2-4.1,8.1-7.6,10.9 c-3.6,2.9-8,4.8-12.5,5.9c-5.7,1.5-11.6,1.8-17.5,1.7c-6.1-0.1-12.2-0.7-18.1-2.3c-5.5-1.5-10.9-3.9-15-7.9c-2.6-2.5-4.7-5.5-6-8.8 c-1.8-4.4-2.5-9.2-2.4-14c0-35.9,0-71.7,0-107.6c-0.1-3.1,0.1-6.3,0.8-9.3c1-4.9,3.3-9.6,6.8-13.1C121.6,30.4,125.2,28.2,129,26.6 L129,26.6z"></path> <path id="path17" class="st1" d="M23.7,23.8c0-0.1,0.1-0.4,0.1-0.5c14.8,0.1,29.7,0,44.5,0c5.8-0.1,11.8,0.4,17.3,2.3 c3.9,1.3,7.7,3.5,10.5,6.5c3.8,4,5.8,9.3,6.7,14.7c0.6,3.4,0.7,6.8,0.6,10.2c0,12.6,0,25.3,0,37.9c0.1,4.6-0.1,9.3-1.3,13.9 c-1.1,4.5-3.2,8.9-6.6,12.1c-2,2.1-4.5,3.7-7.1,4.9c-3.8,1.7-7.9,2.6-12,3.1c-4,0.5-7.9,0.3-11.9,0.3c-1.6,0-3.3,0-4.9,0 c-0.1,3.3,0,6.6,0,9.9c0,18.9,0,37.8,0,56.7c-12,0-24,0-36,0C23.7,138.4,23.7,81.1,23.7,23.8 M59.7,48.1c-0.1,5.6,0,11.2,0,16.8 c0,13.1,0,26.2,0,39.3c1.5,0.1,3,0,4.5-0.3c2.2-0.3,4.6-1.2,5.8-3.2c1.3-2.1,1.4-4.8,1.3-7.2c0-11.3,0-22.7,0-34 c0-1.8,0.1-3.7-0.4-5.4c-0.4-1.7-1.3-3.5-2.9-4.4C65.5,48.3,62.5,48.1,59.7,48.1z"></path> </svg> 