<?xml version="1.0" encoding="UTF-8"?> <!-- Generator: Adobe Illustrator 25.2.1, SVG Export Plug-In . SVG Version: 6.00 Build 0) --> <svg xmlns:cc="http://creativecommons.org/ns#" xmlns:dc="http://purl.org/dc/elements/1.1/" xmlns:inkscape="http://www.inkscape.org/namespaces/inkscape" xmlns:rdf="http://www.w3.org/1999/02/22-rdf-syntax-ns#" xmlns:sodipodi="http://sodipodi.sourceforge.net/DTD/sodipodi-0.dtd" xmlns:svg="http://www.w3.org/2000/svg" xmlns="http://www.w3.org/2000/svg" xmlns:xlink="http://www.w3.org/1999/xlink" version="1.1" id="svg22" inkscape:version="1.0.2 (e86c870879, 2021-01-15, custom)" sodipodi:docname="Fortune logo.svg" x="0px" y="0px" viewBox="0 0 130 50" style="enable-background:new 0 0 130 50;" xml:space="preserve"> <path id="path20" d="M31.8,19.4v11.2c0,2.6,2.1,4.7,4.8,4.7s4.8-2.1,4.8-4.7V19.4c0-2.6-2.1-4.7-4.8-4.7S31.8,16.8,31.8,19.4 M35.2,30.6V19.4c0-0.7,0.6-1.3,1.3-1.3c0,0,0.1,0,0.1,0c0.7,0,1.3,0.5,1.3,1.2c0,0,0,0.1,0,0.1v11.2c0,0.7-0.6,1.3-1.3,1.3 C35.8,31.9,35.2,31.3,35.2,30.6C35.2,30.6,35.2,30.6,35.2,30.6 M68.7,14.9h-9.6v3.4h3.1V35h3.4V18.3h3.1V14.9z M78.7,14.9v15.7 c0,0.7-0.6,1.3-1.3,1.3c-0.7,0-1.3-0.6-1.3-1.3c0,0,0,0,0,0V14.9h-3.5v15.7c0,2.7,2.2,4.8,4.8,4.8c2.6,0,4.8-2.1,4.8-4.8V14.9H78.7z M109.8,18.3v-3.4h-8.4V35h8.4v-3.4h-5v-5.2h3.2V23h-3.2v-4.7H109.8z M55.8,35h-3.6l-2.5-9.5c1.3-0.3,2.2-1.4,2.2-2.7v-3.1 c0-0.8-0.6-1.4-1.3-1.4c0,0,0,0-0.1,0h-1.3V35h-3.4V14.9h4.7c2.6,0,4.7,2,4.8,4.6v3.2c0.1,1.7-0.6,3.3-1.9,4.4L55.8,35z M93.8,14.9 v11l-3.5-11h-3.5V35h3.5v-9.8l3.2,9.8h3.8V14.9H93.8z M20.2,15.2v20.1h3.6v-8.6h3.3v-3.4h-3.3v-4.7H29v-3.4H20.2z"></path> </svg> 