<?xml version="1.0" encoding="UTF-8"?> <!-- Generator: Adobe Illustrator 25.2.1, SVG Export Plug-In . SVG Version: 6.00 Build 0) --> <svg xmlns:cc="http://creativecommons.org/ns#" xmlns:dc="http://purl.org/dc/elements/1.1/" xmlns:inkscape="http://www.inkscape.org/namespaces/inkscape" xmlns:rdf="http://www.w3.org/1999/02/22-rdf-syntax-ns#" xmlns:sodipodi="http://sodipodi.sourceforge.net/DTD/sodipodi-0.dtd" xmlns:svg="http://www.w3.org/2000/svg" xmlns="http://www.w3.org/2000/svg" xmlns:xlink="http://www.w3.org/1999/xlink" version="1.1" id="svg8" inkscape:version="0.92.4 (5da689c313, 2019-01-14)" sodipodi:docname="A.svg" x="0px" y="0px" viewBox="0 0 817.6 332.2" style="enable-background:new 0 0 817.6 332.2;" xml:space="preserve"> <style type="text/css"> .st0{fill:#6101CF;} .st1{fill:#20272D;} </style> <g> <g id="layer1_1_" transform="translate(260.95542,41.213839)" inkscape:groupmode="layer" inkscape:label="Layer 1"> <path id="path1139_1_" inkscape:connector-curvature="0" sodipodi:nodetypes="ccccccccc" class="st0" d="M-227.5,38h44.7l26,66.5 l26.3-66.5H-87l-65.5,157.5h-43.8l17.9-41.7L-227.5,38z"></path> <path id="path1141_1_" inkscape:connector-curvature="0" class="st0" d="M-41.7,35.4c-33.6,0-54.8,30.1-54.8,60.1 c0,33.7,23.3,60.5,54.1,60.5c23,0,31.7-14,31.7-14v10.9h39V38h-39v10.4C-10.6,48.5-20.3,35.4-41.7,35.4z M-33.4,72.3 c15.5,0,23.5,12.3,23.5,23.3c0,11.9-8.6,23.6-23.5,23.6c-12.4,0-23.5-10.1-23.5-23.1C-56.9,82.9-47.9,72.3-33.4,72.3z"></path> <path id="path1145_1_" inkscape:connector-curvature="0" sodipodi:nodetypes="ccccccccccccc" class="st0" d="M41.8,152.8V-12.6 h40.7v61.5c0,0,9.7-13.5,29.9-13.5c24.8,0,39.3,18.5,39.3,44.9v72.5h-40.4V90.2c0-8.9-4.3-17.6-13.9-17.6 c-9.8,0-14.9,8.8-14.9,17.6v62.6H41.8z"></path> <path id="path1147_1_" inkscape:connector-curvature="0" class="st0" d="M221.2,35.4c-38.4,0-61.3,29.2-61.3,60.5 c0,35.6,27.7,60,61.5,60c32.7,0,61.3-23.2,61.3-59.4C282.7,57,252.7,35.4,221.2,35.4z M221.6,72.6c13.6,0,23,11.3,23,23.4 c0,10.3-8.8,23-23,23c-13,0-22.8-10.4-22.8-23.1C198.8,83.7,206.9,72.6,221.6,72.6z"></path> <path id="path1153_1_" inkscape:connector-curvature="0" class="st0" d="M350.6,35.4c-38.4,0-61.3,29.2-61.3,60.5 c0,35.6,27.7,60,61.5,60c32.7,0,61.3-23.2,61.3-59.4C412.1,57,382.1,35.4,350.6,35.4z M350.9,72.6c13.6,0,23,11.3,23,23.4 c0,10.3-8.8,23-23,23c-13,0-22.8-10.4-22.8-23.1C328.2,83.7,336.3,72.6,350.9,72.6z"></path> <circle id="path1155_1_" class="st0" cx="444.2" cy="128.2" r="27.1"></circle> <path id="path1157_1_" inkscape:connector-curvature="0" sodipodi:nodetypes="ccccc" class="st0" d="M480.2,91.2h-48.7l43.2-103.8 h48.5L480.2,91.2z"></path> </g> <g> <path class="st1" d="M547.3,241.4c7.9,0,15.6,0,23.6,0c2.2,10.7,4.5,21.4,6.7,32.1c0.2,0,0.3,0,0.5,0c2.9-10.7,5.9-21.4,8.9-32.3 c5.3,0,10.4,0.1,15.6,0c1.6,0,1.6,1.1,1.9,2.1c2.6,9.4,5.1,18.8,7.7,28.2c0.2,0.7,0.4,1.4,1,2.1c2-10.7,4-21.5,5.9-32.2 c7.9,0,15.7,0,23.6,0c-2.3,8-4.6,15.9-6.9,23.8c-3.3,11.4-6.7,22.8-9.9,34.3c-0.5,1.8-1.2,2.4-3,2.3c-6-0.1-12-0.1-18,0 c-1.8,0-2.6-0.5-3-2.3c-1.9-7.7-4-15.3-6-22.9c-0.2-0.8-0.4-1.6-0.9-3c-2.6,9.7-5,18.9-7.4,28.1c-7.6,0-15.1,0-22.8,0 C559,281.6,553.2,261.6,547.3,241.4z"></path> <path class="st1" d="M437.7,301.6c-7.6,0-14.9,0-22.2,0c0-20.1,0-40,0-60.2c7.3,0,14.6,0,22.1,0c0.1,1.5,0.2,3,0.3,4.9 c0.5-0.4,0.8-0.6,1.1-0.9c7.4-7.4,19.5-8.4,27.9-2.1c6,4.5,8.5,11.1,8.8,18.1c0.5,13.3,0.1,26.6,0.1,40.2c-7.4,0-14.7,0-22.3,0 c0-0.9,0-1.8,0-2.6c0-9.1,0-18.2,0-27.2c0-0.9,0-1.8-0.1-2.7c-0.2-5.3-2.6-7.7-7.4-7.8c-4.7-0.1-8,3-8.2,7.9 c-0.2,4.7-0.1,9.3-0.1,14C437.7,289.1,437.7,295.3,437.7,301.6z"></path> <path class="st1" d="M544.7,279c-13.4,0-26.5,0-39.7,0c1.6,5.7,12.4,9.3,22.3,2.3c4.8,4,9.6,8.1,14.5,12.3c-5,5-10.8,8.2-17.5,9.2 c-8.2,1.2-16.3,1.1-24-2.5c-12.2-5.6-18.8-16.4-18.4-30.2c0.5-15.8,11.7-28.3,27.4-30.5c20.9-2.9,37.3,12.4,36.1,33.6 C545.3,275.1,545,277,544.7,279z M524.4,264.6c-0.9-4.2-4.3-6.9-8.4-7c-6.3-0.1-10.3,2.3-11.5,7 C511.1,264.6,517.7,264.6,524.4,264.6z"></path> <path class="st1" d="M643.3,289c6.4-2.9,12.7-5.7,19.2-8.6c1.8,3.8,4.4,6.2,8.8,6c1.7-0.1,3.6-0.2,3.9-2.3 c0.3-2.2-1.6-2.4-3.1-2.8c-4.9-1.4-9.9-2.4-14.6-4.2c-12.4-4.6-15.6-20.8-6.2-30.1c9.3-9.2,31.1-11.4,41.2,0.5 c1.9,2.2,3.3,4.7,5.2,7.3c-6.5,2.4-12.4,4.5-18.3,6.7c-0.8-1-1.4-2.1-2.3-3c-1.8-1.9-4.2-2.5-6.6-1.8c-0.9,0.2-2,1.2-2.1,2 c-0.1,0.7,0.9,2,1.7,2.3c2,0.8,4.2,1,6.3,1.6c4.4,1.3,8.9,2.6,13.3,4.2c3.2,1.2,5.4,3.8,6.9,6.9c5.2,10.6,1,22.3-9.9,26.7 c-11.2,4.5-22.5,4.2-33.4-0.9C648.4,297.5,645.1,293.6,643.3,289z"></path> </g> </g> </svg> 