<?xml version="1.0" encoding="UTF-8" standalone="no"?> <svg xmlns="http://www.w3.org/2000/svg" version="1.0" width="800.000000pt" height="219.000000pt" viewBox="0 0 800.000000 219.000000" preserveAspectRatio="xMidYMid meet"><g transform="translate(0.000000,219.000000) scale(0.100000,-0.100000)" fill="#000000" stroke="none"><path d="M148 1823 c-3 -27 -4 -49 -3 -51 1 -1 25 -5 54 -9 l51 -6 0 -453 0 -454 -31 0 c-53 0 -69 -15 -69 -65 l0 -45 348 0 349 0 -5 138 c-2 75 -6 138 -7 140 -1 2 -34 6 -72 9 l-70 6 -7 -64 c-4 -35 -9 -79 -13 -96 l-5 -33 -104 0 -104 0 0 215 0 215 45 0 c42 0 44 -1 54 -37 6 -21 11 -43 11 -50 0 -8 18 -12 50 -11 l50 0 0 144 0 144 -48 0 -48 0 -12 -45 c-12 -45 -12 -45 -57 -45 l-45 0 0 200 0 200 105 0 105 0 0 -47 c0 -27 3 -65 6 -85 l6 -36 65 -4 c36 -2 66 -1 68 2 1 3 6 65 10 138 l7 132 -340 0 -340 0 -4 -47z"></path><path d="M1770 1656 c-4 -13 -14 -43 -20 -67 -14 -54 -32 -69 -82 -69 l-38 0 0 -49 c0 -52 10 -61 68 -61 l22 0 0 -282 c0 -311 3 -328 63 -372 35 -26 166 -35 234 -16 38 11 44 16 39 34 -3 12 -6 31 -6 44 0 20 -5 22 -53 22 -89 0 -87 -7 -87 302 l0 265 61 6 c33 3 62 7 63 9 2 1 6 24 8 51 l6 47 -69 0 -69 0 0 80 0 80 -65 0 c-60 0 -66 -2 -75 -24z"></path><path d="M1245 1522 c-23 -9 -55 -27 -72 -39 l-31 -23 -6 35 c-8 39 -9 40 -106 25 -143 -22 -130 -16 -130 -65 l0 -45 45 0 45 0 0 -290 0 -290 -40 0 -40 0 0 -45 0 -45 169 0 168 0 6 37 c8 47 3 53 -39 53 l-34 0 0 269 c0 227 2 270 15 281 22 18 96 23 125 8 44 -23 49 -62 49 -365 l1 -283 130 0 130 0 0 44 c0 44 0 45 -37 48 l-38 3 -5 290 -5 290 -29 42 c-37 56 -94 83 -172 82 -32 0 -77 -8 -99 -17z"></path><path d="M2844 1516 c-123 -57 -194 -195 -194 -378 0 -146 42 -260 122 -334 66 -61 118 -77 230 -72 92 4 153 22 202 60 17 13 17 18 5 51 -14 40 -20 43 -50 26 -34 -18 -129 -29 -172 -20 -21 5 -52 22 -68 37 -32 30 -69 118 -69 163 0 27 2 28 68 34 37 4 124 7 194 7 l126 0 11 30 c12 37 0 155 -24 224 -19 55 -53 112 -81 138 -69 61 -208 77 -300 34z m174 -109 c27 -28 50 -94 58 -162 l6 -52 -32 -7 c-18 -3 -71 -6 -118 -6 l-85 0 6 63 c8 86 35 163 61 175 37 18 81 14 104 -11z"></path><path d="M3362 1522 l-103 -15 3 -41 c3 -40 4 -41 43 -46 l40 -5 3 -479 c2 -510 4 -496 -45 -496 -17 0 -23 -6 -23 -22 0 -13 -3 -33 -6 -45 l-6 -23 176 0 176 0 0 44 c0 43 0 44 -40 50 l-40 6 0 150 c0 83 1 150 3 150 1 0 18 -5 37 -11 51 -15 159 -12 202 5 50 21 105 71 128 116 27 52 50 177 50 267 -1 280 -79 413 -243 413 -67 0 -111 -14 -159 -51 l-37 -29 -11 40 c-12 45 -2 44 -148 22z m337 -117 c57 -29 66 -69 66 -280 -1 -240 -8 -266 -77 -279 -29 -6 -67 -6 -95 0 l-48 9 -3 251 c-2 239 -1 252 18 277 29 37 92 47 139 22z"></path><path d="M4764 1524 c-125 -44 -204 -193 -205 -384 -1 -143 31 -239 106 -319 68 -73 126 -94 239 -89 76 3 102 9 159 35 37 18 67 37 67 43 0 12 -28 70 -34 70 -2 0 -23 -7 -47 -16 -55 -19 -144 -22 -184 -6 -53 22 -103 111 -104 183 l-1 36 83 6 c45 4 132 7 194 7 l112 0 7 36 c11 57 -2 163 -28 231 -48 128 -125 184 -250 182 -40 0 -92 -7 -114 -15z m159 -114 c28 -22 52 -87 62 -166 l6 -51 -38 -6 c-21 -4 -75 -7 -121 -7 l-84 0 6 28 c2 15 7 45 11 67 11 73 35 132 58 143 35 17 72 14 100 -8z"></path><path d="M5527 1526 c-20 -8 -52 -25 -71 -40 l-34 -26 -7 31 c-4 17 -13 33 -20 35 -12 5 -202 -20 -209 -27 -2 -2 -6 -22 -8 -44 l-3 -40 45 -5 45 -5 1 -155 c0 -85 -2 -214 -4 -287 l-5 -132 -31 -3 c-29 -3 -31 -6 -34 -45 l-3 -43 170 0 171 0 0 44 c0 44 0 45 -37 48 l-38 3 -3 258 -2 258 24 24 c41 41 121 33 149 -15 15 -25 17 -65 17 -324 l0 -296 135 0 135 0 0 44 c0 44 0 45 -37 48 l-38 3 -5 285 c-5 306 -7 316 -62 367 -54 51 -160 68 -241 39z"></path><path d="M6135 1516 c-126 -58 -195 -193 -195 -381 0 -189 82 -340 213 -390 73 -28 215 -18 291 20 31 16 59 33 62 37 6 10 -17 78 -27 78 -3 0 -26 -7 -50 -16 -24 -9 -72 -16 -106 -17 -52 -1 -66 3 -97 27 -44 33 -73 87 -82 153 l-6 50 77 6 c43 4 131 7 195 7 l118 0 12 30 c28 66 -23 265 -87 341 -66 78 -215 104 -318 55z m175 -114 c31 -31 48 -78 57 -158 l5 -51 -38 -6 c-22 -4 -74 -7 -118 -7 l-79 0 6 58 c8 89 34 167 60 180 40 19 77 14 107 -16z"></path><path d="M6710 1529 c-167 -22 -150 -16 -150 -59 0 -39 0 -39 43 -42 l42 -3 5 -280 c4 -235 8 -285 22 -310 40 -73 104 -105 208 -105 74 0 115 14 157 53 24 21 22 23 38 -28 4 -13 23 -15 117 -13 l113 3 3 43 3 42 -40 0 -40 0 -3 345 c-2 223 -7 348 -13 354 -8 8 -47 6 -130 -4 -66 -8 -123 -15 -127 -15 -5 0 -8 -18 -8 -40 l0 -40 45 0 45 0 0 -268 c0 -268 0 -269 -23 -290 -37 -34 -110 -31 -148 7 l-29 29 0 272 c0 167 -4 288 -11 316 -13 49 -8 48 -119 33z"></path><path d="M2201 1515 c-46 -8 -88 -18 -93 -23 -5 -5 -8 -25 -6 -43 3 -32 5 -34 46 -37 l42 -3 0 -290 0 -289 -22 0 c-34 0 -44 -11 -52 -52 l-7 -38 176 0 175 0 0 39 c0 41 -11 51 -56 51 l-24 0 0 275 0 275 24 10 c57 21 61 19 66 -40 l5 -55 65 -3 66 -3 11 107 c10 92 9 109 -4 122 -22 23 -120 10 -198 -27 -59 -27 -65 -28 -65 -11 0 54 -9 56 -149 35z"></path><path d="M4115 1515 c-44 -8 -86 -14 -92 -14 -9 -1 -13 -17 -13 -46 l0 -45 45 0 45 0 0 -285 c0 -220 -3 -287 -12 -289 -7 -3 -25 -7 -40 -10 -25 -6 -28 -11 -28 -46 l0 -40 175 0 175 0 0 39 c0 41 -11 51 -56 51 l-24 0 0 276 0 275 35 15 c19 7 37 14 39 14 3 0 8 -27 12 -60 l7 -60 62 0 c46 0 64 4 69 15 3 8 8 55 12 105 5 66 4 94 -6 105 -21 25 -105 19 -184 -15 -72 -31 -85 -29 -86 13 0 20 -19 21 -135 2z"></path><path d="M7470 1519 c-30 -5 -70 -12 -87 -15 -32 -5 -33 -7 -33 -49 l0 -45 40 0 40 0 0 -290 c0 -279 -1 -290 -19 -290 -40 0 -51 -11 -51 -51 l0 -39 170 0 170 0 0 39 c0 40 -11 51 -50 51 -10 0 -21 8 -24 18 -6 21 -2 530 5 535 16 12 62 26 70 22 5 -4 9 -24 9 -45 0 -65 5 -70 75 -70 l62 0 12 107 c12 100 11 108 -6 121 -26 20 -120 9 -189 -22 -31 -14 -60 -26 -65 -26 -4 0 -9 12 -11 28 -4 32 -28 36 -118 21z"></path><path d="M7793 835 c-26 -18 -32 -72 -11 -93 18 -18 73 -14 91 6 48 53 -22 128 -80 87z m71 -21 c17 -45 -7 -81 -48 -70 -51 13 -40 86 13 86 17 0 31 -6 35 -16z"></path><path d="M7807 814 c-11 -11 -8 -54 3 -54 6 0 10 5 10 11 0 8 5 7 16 -2 14 -11 15 -9 12 16 -3 28 -26 44 -41 29z m28 -14 c3 -5 1 -10 -4 -10 -6 0 -11 5 -11 10 0 6 2 10 4 10 3 0 8 -4 11 -10z"></path></g></svg> 