<?xml version="1.0" encoding="UTF-8"?> <!-- Generator: Adobe Illustrator 25.2.1, SVG Export Plug-In . SVG Version: 6.00 Build 0) --> <svg xmlns="http://www.w3.org/2000/svg" xmlns:xlink="http://www.w3.org/1999/xlink" version="1.1" x="0px" y="0px" viewBox="0 0 315 315" style="enable-background:new 0 0 315 315;" xml:space="preserve"> <style type="text/css"> .st0{fill:#FF0221;} .st1{fill:#FFFFFF;} </style> <g id="Layer_2"> </g> <g id="Layer_1"> <rect class="st0" width="315" height="315"></rect> <polygon class="st1" points="84.4,194.6 71.5,238.5 100.5,224.4 118.4,235.9 145.5,239.4 184.7,237.7 203.3,232.7 213.5,201.5 207.3,184.1 190.4,184.1 148.8,193.9 120.8,192.1 "></polygon> <rect x="97.5" y="120.5" width="9" height="9"></rect> <rect x="88.5" y="182.5" width="47" height="8"></rect> <polygon class="st1" points="205.4,130.6 192.2,179.2 166.2,178.1 145.5,178.2 89.9,181.4 79.3,173.4 82,143.8 100.5,132.1 125.5,124.4 150.9,118.2 203.2,118.2 205.4,126.1 "></polygon> <polygon class="st1" points="117.5,110.5 130.4,116.2 167,116.2 216.2,118.2 221.9,101.7 236.5,65.5 236.5,58.3 232.5,58.9 223.5,72.5 221.9,65.8 221.9,60.7 220.9,58.9 212,56.7 207.5,60.5 204.5,65.5 199.5,73.5 191.5,71.5 187.6,64.9 167.5,65.5 147.7,70.9 134.5,64.5 124.2,69 "></polygon> <g> <g> <path class="st1" d="M219.7,86.6l1.4-27.4v-0.2h-10.7l-0.1,0.2l-13.6,27.4l2.1-27.7h-43.2L140.3,115h29.5l2.7-10.1h-15.9 l3.6-13.3h15.9l2.7-10.1H163l3.4-12.3h17.9l-3.5,45.9h13.8l13.7-28.9l-2.1,28.9H220l26.2-56.1h-13.6L219.7,86.6z"></path> <path class="st1" d="M138.9,58.9l-8,29.3l-3-29.3h-15.2L97.4,115h12.1l8.7-32l3.4,32h14.1l15.3-56.1H138.9z"></path> </g> <path d="M246.6,64.1l3.1-6.8c0.1-0.4,0-0.6-0.4-0.6h-17.6c-0.5,0-0.9,0.2-1.2,0.5l-6.9,7c-0.2,0.2-0.5,0.2-0.5-0.2l0.4-6.5 c0-0.4-0.2-0.7-0.6-0.7h-13.4c-0.5,0-0.9,0.2-1.2,0.5l-6.9,6.7c-0.2,0.2-0.5,0.1-0.5-0.2l0.5-6.2c0-0.4-0.2-0.7-0.6-0.7h-63.3 c-0.5,0-0.9,0.2-1.2,0.5l-5.1,5.4c-0.2,0.2-0.5,0.2-0.6-0.2l-0.5-5.1c0-0.4-0.3-0.7-0.7-0.7h-17.9c-0.5,0-0.9,0.2-1.2,0.5 L94.9,73.8c-0.3,0.3-0.5,0.8-0.6,1.2l-14.9,54.7c-0.1,0.3,0,0.6,0.3,0.7c0.1,0,0.1,0,0.2,0h11.6c0.4,0,0.9-0.1,1.2-0.4l9.1-6.3 c0.4-0.2,0.6-0.1,0.6,0.2l0.6,5.7c0,0.4,0.3,0.7,0.7,0.7h13.7c0.5,0,0.9-0.2,1.2-0.5l3.7-3.2c0.2-0.2,0.5-0.1,0.4,0.2l-0.7,2.8 c-0.1,0.3,0,0.6,0.3,0.7c0.1,0,0.1,0,0.2,0h29.3c0.4,0,0.9-0.1,1.2-0.4l9.3-6.5c0.4-0.2,0.6-0.1,0.5,0.2l-0.5,5.8 c0,0.4,0.2,0.7,0.6,0.7h13.4c0.5,0,0.9-0.1,1.4-0.4l10-6.4c0.4-0.2,0.6-0.1,0.5,0.4l-0.5,5.8c0,0.4,0.2,0.7,0.6,0.7h13.4 c0.4,0,0.9-0.1,1.2-0.4l17.7-12.3c0.4-0.3,0.7-0.7,0.9-1.1l16.4-35.2L246.6,64.1z M121.5,115l-3.4-32l-8.7,32H97.4l15.3-56.1h15.2 l3,29.3l8-29.3h12.1L135.6,115H121.5z M220,115h-13.8l2-28.9L194.5,115h-13.7l3.5-45.8h-17.9L163,81.5h15.9l-2.7,10.1h-15.9 l-3.6,13.3h15.9l-2.7,10.1h-29.5l15.2-56.2h43.1l-2.1,27.7l13.6-27.4l0.1-0.2h10.7v0.2l-1.4,27.4l12.9-27.7h13.7L220,115z M256.2,58.9"></path> </g> <path d="M192.8,154.1h-4.9l-3.2,11.7h4.9c2.7,0,4.4-0.3,5.4-4.2c0,0,1.2-4.4,1-3.7C196.8,154.5,195.4,154.1,192.8,154.1z"></path> <g> <path class="st1" d="M123.4,130.5l-9.9,36.5c-4,16.1,31.9,16.5,36.8,0l9.9-36.5C164.2,114.5,128.3,114.1,123.4,130.5z M145.3,134.2l-8,29.1c-1.7,6.3-10.8,6.3-9.1,0l8-29.1C138,127.9,147,127.9,145.3,134.2z"></path> <path class="st1" d="M191.4,148.7c7.3-1.7,8.2-7.3,9.9-13.9c2.2-8,4.8-14.5-8-14.5h-26.1l-15.2,56.1h13.5l6.2-22.7h4.6 c3.1,0,4.7,0.4,3.5,4.8l-4.8,17.7v0.1h14.5l3.7-13.7C195.5,154.4,197.6,150.1,191.4,148.7z M186.2,139c-1.2,4.3-3,4.8-6.1,4.8 h-5.6l3.6-13.3h5.6c3,0,4.6,0.4,3.6,4.4C187.6,133.9,186.2,139,186.2,139L186.2,139z"></path> <path class="st1" d="M114.4,120.4l-13.3,19.7l-2.5-19.7H86.3l4.4,33.3l-6.1,22.7h13.4l6.2-22.7l22.5-33.3H114.4z"></path> <path d="M67.3,136.9l4.7,31.6c0,0.5,0,0.9-0.1,1.4l-5.5,21.2c-0.1,0.3,0,0.6,0.3,0.7c0.1,0,0.1,0,0.2,0h15.7 c0.5,0,0.9-0.2,1.2-0.5l10.7-8.4c0.2-0.2,0.7-0.4,0.9,0.1c0,0,2,8.6,16.3,8.5c5.7-0.1,11.3-1.6,16.2-4.6c0.4-0.1,0.9-0.5,1.2-0.6 l6.7-3.7c0.4-0.2,0.5,0,0.4,0.4l-2.2,8.1c-0.1,0.3,0,0.6,0.3,0.7c0.1,0,0.1,0,0.2,0h13.1c0.4,0,0.9-0.1,1.2-0.4l9.2-6.4 c0.4-0.2,0.5-0.1,0.4,0.2l-1.6,5.9c-0.1,0.3,0,0.6,0.3,0.7c0.1,0,0.1,0,0.2,0h14c0.5,0,0.9-0.2,1.2-0.5l3.7-3.1 c0.2-0.2,0.5-0.1,0.4,0.2l-0.7,2.6c-0.1,0.3,0,0.6,0.3,0.7c0.1,0,0.1,0,0.2,0h13.2c0.5,0,0.9-0.2,1.2-0.5l8.2-6.4 c0.2-0.2,0.5-0.2,0.6,0c0.1,0.1,0.1,0.1,0.1,0.2l1.1,5.9c0.1,0.4,0.5,0.7,0.9,0.7h18.1c0.5,0,0.9-0.2,1.2-0.5l15.3-12.3 c0.7-0.5,1-1,0.9-1.3l0,0l-6.1-31.3c-0.1-0.4,0.1-0.9,0.4-1.2l23.1-26.6c0.2-0.2,0.1-0.5-0.2-0.5h-20.4c-0.5,0-0.9,0.2-1.2,0.5 l-8,6.7c-0.2,0.2-0.5,0.1-0.4-0.2l1.6-6.2c0.1-0.3,0-0.6-0.3-0.7c-0.1,0-0.1,0-0.2,0h-16.9c-0.5,0-0.9,0.2-1.2,0.5L205,121 c-0.2,0.2-0.5,0.4-0.7,0c-2-2.8-6.8-2.8-9.7-2.8h-28.2c-0.5,0-0.9,0.2-1.2,0.5l-3.5,3.7c-0.2,0.2-0.5,0.4-0.7,0.1 c0,0-2.5-6.2-15.4-6.3c-9.8-0.1-14.7,3.3-14.7,3.3c-0.4,0.2-0.4,0-0.1-0.4l0.2-0.4c0.2-0.4,0-0.6-0.4-0.6h-16.7 c-0.4,0-0.9,0.1-1.2,0.4l-10.2,7c-0.4,0.2-0.6,0.1-0.6-0.2l-0.9-6.4c0-0.4-0.4-0.8-0.9-0.7H84.3c-0.4,0.1-0.9,0.2-1.2,0.5l-6.2,7 L67.3,136.9z M104.2,153.7L98,176.2H84.4l6.2-22.6l-4.4-33.3h12.3l2.6,19.7l13.3-19.7h12.3L104.2,153.7z M113.5,167l9.9-36.5 c5-16.5,40.8-16.1,36.8,0l-9.9,36.5C145.3,183.5,109.5,183.1,113.5,167L113.5,167z M189.6,176.3H175v-0.1l4.8-17.7 c1.2-4.3-0.4-4.8-3.5-4.8h-4.6l-6.2,22.7h-13.4l15.3-56h26.1c12.8,0,10.2,6.4,8,14.5c-1.7,6.5-2.7,12.1-9.9,13.9 c6.2,1.4,4.1,5.7,1.9,13.9L189.6,176.3z M219.6,176.3l-5-25h-0.1l-6.8,25h-13.6l15.3-56H223l-5.5,20.2l17.4-20.2h14.8l-21.5,25 h0.1l6.1,30.9L219.6,176.3z"></path> <path d="M136.2,134.2l-8,29.1c-1.7,6.3,7.3,6.3,9.1,0l8-29.1C147,127.9,138,127.9,136.2,134.2z"></path> <path class="st1" d="M234.9,120.4l-17.4,20.3l5.5-20.3h-13.5l-15.3,56h13.6l6.8-25h0.1l5,25l14.8,0l-6.1-30.9h-0.1l21.5-25H234.9z "></path> <path d="M183.7,130.5h-5.6l-3.6,13.3h5.6c3.1,0,5-0.4,6.1-4.8c0,0,1.4-5.1,1.1-4.2C188.3,130.9,186.7,130.5,183.7,130.5z"></path> </g> <g> <g> <path class="st1" d="M128.7,193.9l-10,36.8c-4,16.3,32.3,16.7,37.2,0l10-36.8C169.9,177.7,133.6,177.4,128.7,193.9z M150.8,197.7 l-8,29.5c-1.8,6.3-10.9,6.3-9.2,0l8-29.4C143.4,191.3,152.6,191.3,150.8,197.7z"></path> <path class="st1" d="M190.5,202.6h13.7c0.8-2.9,2.4-8.7,2.4-8.7c3.3-13.6-18.6-15.9-30.6-7.3c-3.1,2.3-5.5,5.4-6.9,9 c-5.1,16.4,19.3,23.5,13.6,33.2c-2.8,4.2-10.2,3.4-8.8-1.9l1.3-4.7h-13.7l-2.4,8.7c-4.1,16.8,31.9,16.2,38.2-0.6 c8.3-21-18.9-25-13.1-35c2.8-4.2,8.9-2.5,7.5,2.7L190.5,202.6z"></path> <path class="st1" d="M211.7,183.7l-2.9,10.2h9.2l-12.6,46.3h13.7l12.6-46.3h9.2l2.8-10.2H211.7z"></path> <path class="st1" d="M122.8,203.3c0.5-1.5,0.9-3.2,1.4-4.9c2.3-8.1,3-14.7-9.9-14.7H90.8l-15.4,56.5h13.7l4.8-17.3h9.8 c12.9,0,15.7-6.5,17.8-14.7C122,206.5,122.5,204.7,122.8,203.3L122.8,203.3z M109.2,203.3c-0.8,2.6-1.5,5.5-1.4,5 c-1.3,4-3,4.5-6,4.5h-5l5.1-18.8h5c3,0,4.6,0.4,3.6,4.5C109.9,200,109.5,201.6,109.2,203.3L109.2,203.3z"></path> </g> <path d="M106.8,193.9h-5l-5.1,18.8h5c3,0,4.9-0.4,6-4.5c-0.1,0.5,0.6-2.2,1.4-5c0.8-2.6,1.5-5.5,1.4-5 C111.4,194.3,109.8,193.9,106.8,193.9L106.8,193.9z"></path> <path d="M141.8,197.7l-8,29.4c-1.8,6.3,7.4,6.3,9.2,0l8-29.4C152.6,191.3,143.4,191.3,141.8,197.7z"></path> <path d="M246.1,181.5h-35.4c-0.5,0.1-1,0.3-1.4,0.6l-2,2c-0.4,0.2-0.5,0.9-0.9,0c-3-3.6-7.9-5-14.2-4.9c-2.4,0-10.4-0.1-17.6,4.9 c-2.1,1.5-4,3.3-5.5,5.5c-0.3,0.4-0.5,0.6-0.5-0.1c0.1-3.1-2.8-10.5-17.8-10.2c-6.2-0.2-18.5,1.4-22.8,10.6 c-0.1,0.4-0.3,0.4-0.3,0c0.5-6.2-3.3-8.5-11.7-8.5H89.9c-0.5,0-0.9,0.2-1.3,0.5L73,198.6c-0.3,0.3-0.5,0.8-0.6,1.2l-15.1,55 c-0.1,0.3,0,0.6,0.3,0.7c0.1,0,0.1,0,0.2,0h14.4c0.4,0,0.9-0.2,1.3-0.4l17.1-12.4c0.4-0.3,0.6-0.7,0.8-1.1l1.3-4.5 c0.1-0.4,0.4-0.7,0.9-0.6c1.5,0.1,7.3-0.5,9.2-1.4c0.4-0.1,0.5,0.1,0.4,0.6l-1.5,5.8c-3.8,14.2,16.6,13.9,16.6,13.9 c12.3,0,19.1-1.2,22-7.2c0.1-0.4,0.1-0.4,0.3,0c0,0-0.4,2.9,4.8,5.1c4.4,1.9,16.1,4.1,27.6-0.9c0.9-0.4,17.2-9.5,17.2-9.5 c0.4-0.2,0.5,0,0.5,0.4l-3.1,11.5c-0.1,0.3,0,0.6,0.3,0.7c0.1,0,0.1,0,0.2,0H201c0.4,0,0.9-0.1,1.3-0.4l18.1-12.4 c0.4-0.3,0.6-0.7,0.8-1.1l10.3-37.5c0.2-0.4,0.4-0.8,0.8-1.1l9.9-6.7c0.4-0.3,0.6-0.7,0.8-1.1l3.6-13.3 C246.7,181.8,246.5,181.5,246.1,181.5z M103.6,222.8h-9.8l-4.8,17.3H75.4l15.4-56.5h23.5c12.9,0,12.2,6.5,9.9,14.7 c-0.5,1.7-0.9,3.4-1.4,4.9c-0.4,1.6-0.9,3.2-1.4,4.9C119.3,216.3,116.6,222.8,103.6,222.8L103.6,222.8z M155.8,230.8 c-5,16.7-41.2,16.3-37.2,0l10-36.8c5-16.7,41.2-16.3,37.2,0L155.8,230.8z M190.5,202.6l1.3-4.7c1.4-5.2-4.8-7-7.5-2.7 c-5.8,9.8,21.3,13.9,13.1,35c-6.3,16.8-42.3,17.5-38.2,0.6l2.4-8.7h13.7l-1.3,4.7c-1.4,5.2,5.9,6.1,8.8,1.9 c5.6-9.7-18.8-16.8-13.6-33.2c1.4-3.6,3.8-6.7,6.9-9c11.9-8.5,33.9-6.1,30.6,7.3c0,0-1.6,6-2.4,8.7L190.5,202.6L190.5,202.6z M240.8,193.9h-9.2l-12.5,46.2h-13.7l12.6-46.2h-9.2l2.8-10.2h31.9L240.8,193.9z"></path> </g> </g> </svg> 