<?xml version="1.0" encoding="UTF-8"?> <!-- Generator: Adobe Illustrator 25.2.1, SVG Export Plug-In . SVG Version: 6.00 Build 0) --> <svg xmlns="http://www.w3.org/2000/svg" xmlns:xlink="http://www.w3.org/1999/xlink" version="1.1" id="Layer_1" x="0px" y="0px" viewBox="0 0 140 50" style="enable-background:new 0 0 140 50;" xml:space="preserve"> <style type="text/css"> .st0{fill-rule:evenodd;clip-rule:evenodd;fill:#111111;} </style> <desc id="desc">The words "Business Insider".</desc> <g> <path class="st0" d="M26.5,41h2.4V28.2h-2.4V41z M35.3,40.8h2.1v-8.1l9,8.3V28.4h-2.1v7.9l-9-8.1V40.8z M51.3,37.7 c1.2,0.9,2.6,1.4,4.1,1.4c1.5,0,2.5-0.5,2.5-1.6c0-1-0.7-1.3-1.8-1.8l-1.9-0.6c-1.7-0.6-3-1.5-3-3.5c0-2.2,2-3.4,4.3-3.4 c1.4,0,2.8,0.4,3.8,1v2.2c-1.1-0.8-2.2-1.3-3.7-1.3c-1.3,0-2.3,0.5-2.3,1.5c0,0.9,0.6,1.3,1.7,1.6l2.1,0.7c2,0.7,2.9,1.8,2.9,3.6 c0,2.3-2,3.5-4.6,3.5c-1.7,0-3.2-0.5-4.1-1.1C51.3,39.9,51.3,37.7,51.3,37.7z M65.6,41H68V28.2h-2.4V41z M79.2,39.1 c2.7,0,4.1-1.7,4.1-4.5c0-2.8-1.4-4.5-4.1-4.5h-2.7v8.9C76.6,39.1,79.2,39.1,79.2,39.1z M74.4,28.2h4.9c3.8,0,6.2,2.5,6.2,6.4 c0,3.9-2.5,6.4-6.2,6.4h-4.9V28.2z M97.5,28.2v1.9h-5.8v3.1h5.2v1.9h-5.2v4h5.8V41h-8V28.2H97.5z M106,34h2.4c1.4,0,2.2-0.8,2.2-2 c0-1.2-0.8-2-2.2-2H106V34L106,34z M106,35.8V41h-2.1V28.2h4.5c2.6,0,4.3,1.3,4.3,3.8c0,2.1-0.9,3.4-2.9,3.7l4.5,5.3h-2.4l-4.4-5.2 L106,35.8L106,35.8z M25.6,15.6c0.9-0.3,1.7-1.4,1.7-2.8c0-2.4-1.7-3.6-4.3-3.6h-4.5v13.2h4.9c2.7,0,4.3-1.3,4.3-3.8 C27.7,17.2,26.9,16,25.6,15.6z M20.6,14.8v-3.6H23c1.5,0,2.3,0.5,2.3,1.8s-0.8,1.8-2.3,1.8C23,14.8,20.6,14.8,20.6,14.8z M20.6,16.6h2.8c1.5,0,2.3,0.7,2.3,1.9c0,1.2-0.8,1.9-2.2,1.9h-2.8L20.6,16.6L20.6,16.6z M37.5,22.6c3.1,0,5.1-1.8,5.1-5.4V9.2 h-2.2v7.7c0,2.5-1,3.7-3,3.7s-3-1.2-3-3.7V9.2h-2.2v7.9C32.4,20.8,34.5,22.6,37.5,22.6z M47.7,21.4c0.9,0.6,2.4,1.2,4.1,1.2 c2.6,0,4.6-1.3,4.6-3.7c0-1.9-0.9-3.1-2.9-3.8l-2.1-0.8c-1.1-0.4-1.7-0.8-1.7-1.7c0-1.1,1-1.6,2.2-1.6c1.5,0,2.7,0.6,3.7,1.4v-2.3 c-1-0.7-2.3-1.1-3.8-1.1c-2.4,0-4.3,1.3-4.3,3.6c0,2.2,1.3,3.1,3,3.8l1.9,0.7c1.1,0.4,1.8,0.9,1.8,1.9c0,1.2-1,1.7-2.5,1.7 c-1.5,0-2.9-0.6-4.1-1.5C47.7,19.1,47.7,21.4,47.7,21.4z M64.1,9.2H62v13.2h2.2V9.2z M70.3,22.4h2.1v-8.6l8.8,8.8V9.2h-2.1v8.4 L70.3,9C70.3,9,70.3,22.4,70.3,22.4z M94.7,9.2v2h-5.6v3.2h5v1.9h-5v4.1h5.6v2H87V9.2H94.7z M99.8,21.4c0.9,0.6,2.4,1.2,4.1,1.2 c2.6,0,4.6-1.3,4.6-3.7c0-1.9-0.9-3.1-2.9-3.8l-2.1-0.8c-1.1-0.4-1.7-0.8-1.7-1.7c0-1.1,1-1.6,2.2-1.6c1.5,0,2.7,0.6,3.7,1.4v-2.3 c-1-0.7-2.3-1.1-3.8-1.1c-2.4,0-4.3,1.3-4.3,3.6c0,2.2,1.3,3.1,3,3.8l1.9,0.7c1.1,0.5,1.8,0.9,1.8,1.9c0,1.2-1,1.7-2.5,1.7 c-1.5,0-2.9-0.6-4.1-1.5C99.8,19.1,99.8,21.4,99.8,21.4z M112.9,21.4c0.9,0.6,2.4,1.2,4.1,1.2c2.6,0,4.6-1.3,4.6-3.7 c0-1.9-0.9-3.1-2.9-3.8l-2.1-0.8c-1.1-0.4-1.7-0.8-1.7-1.7c0-1.1,1-1.6,2.2-1.6c1.5,0,2.7,0.6,3.7,1.4v-2.3c-1-0.7-2.3-1.1-3.8-1.1 c-2.4,0-4.3,1.3-4.3,3.6c0,2.2,1.3,3.1,3,3.8l1.9,0.7c1.1,0.5,1.8,0.9,1.8,1.9c0,1.2-1,1.7-2.5,1.7c-1.5,0-2.9-0.6-4.1-1.5 C112.9,19.1,112.9,21.4,112.9,21.4z"></path> </g> </svg> 