<?xml version="1.0" encoding="UTF-8"?> <!-- Generator: Adobe Illustrator 23.0.1, SVG Export Plug-In . SVG Version: 6.00 Build 0) --> <svg xmlns="http://www.w3.org/2000/svg" xmlns:xlink="http://www.w3.org/1999/xlink" version="1.1" id="Layer_1" x="0px" y="0px" viewBox="0 0 3001 207.8" style="enable-background:new 0 0 3001 207.8;" xml:space="preserve"> <style type="text/css"> .st0{fill:#FFFFFF;} </style> <g> <path class="st0" d="M484.8,176.9c0-19.6,0-38.4,0-57.9c32.4,0,64.5,0,96.7,0c0-9.2,0-17.8,0-27c-32.4,0-64.5,0-96.7,0 c0-20.6,0-40.5,0-60.9c38.1,0,75.8,0,113.7,0c0-9.4,0-18.3,0-27.2c-47.5,0-94.6,0-141.6,0c0,67,0,133.6,0,200.1 c47.5,0,94.6,0,141.6,0c0-9.2,0-17.9,0-27C560.6,176.9,523,176.9,484.8,176.9z M1621.3,90.6c-27.4,0-54.5,0-82,0 c0-29.8,0-58.9,0-88.3c-9.4,0-18.3,0-27.7,0c0,29.6,0,58.9,0,88.9c-27.6,0-54.7,0-81.9,0c0,9.3,0,17.9,0,27.2c2.3,0,4.5,0,6.6,0 c23.2,0,46.5,0.1,69.7-0.1c4.4,0,5.8,1.2,5.8,5.7c-0.2,25.4-0.1,50.8-0.1,76.2c0,1.9,0.2,3.8,0.3,5.8c9.3,0,18,0,27.5,0 c0-29.3,0-58.4,0-88c27.7,0,54.6,0,81.8,0C1621.3,108.7,1621.3,100,1621.3,90.6z M1106.9,3.7c0,67,0,133.7,0,200.3 c45.4,0,90.3,0,135.4,0c0-9.1,0-17.9,0-27.3c-36,0-71.7,0-108,0c0-58,0-115.4,0-173C1125,3.7,1116.1,3.7,1106.9,3.7z M924.2,176.6 c-36.1,0-72,0-108.4,0c0-58.1,0-115.4,0-172.8c-9.4,0-18.3,0-27.1,0c0,67,0,133.6,0,200.2c45.3,0,90.3,0,135.5,0 C924.2,195,924.2,186.2,924.2,176.6z"></path> <path d="M0,3.2c7.6,0.1,15.2,0.6,22.7,0c5.6-0.4,7.6,1.8,9.2,6.9C46.1,55.6,60.6,101,75.1,146.4c0.7,2.1,1.5,4.3,2.6,7.5 c1.7-4.9,3.1-8.7,4.4-12.6c14.6-44.1,29.1-88.1,43.5-132.2c1.5-4.5,3.5-6.4,8.3-5.9c4.1,0.5,8.3,0.4,12.4,0c4.1-0.4,5.5,1.4,6.7,5 c15.2,46.5,30.7,92.9,46,139.3c0.6,1.7,1.2,3.3,2.3,6.4c2.6-7.9,4.8-14.6,6.9-21.3C221.4,91.3,234.6,50,247.6,8.7 c1.3-4.1,3-5.8,7.5-5.5c7.7,0.4,15.5,0.1,24,0.1c-3.5,11-6.8,21.5-10.2,32.1c-17.5,54.4-35.1,108.8-52.4,163.3 c-1.4,4.4-3.3,6.1-7.8,5.7s-9-0.5-13.5,0c-5,0.5-6.7-1.6-8.1-6.1c-14.9-45.6-30.1-91.2-45.2-136.8c-0.5-1.7-1.2-3.3-2.3-6.2 c-1.1,3.2-1.9,5.2-2.6,7.3c-15,45.4-30,90.8-44.9,136.3c-1.4,4.2-3.1,5.8-7.5,5.4c-5.2-0.4-10.5-0.3-15.7,0c-3.3,0.2-4.6-1-5.6-4.2 c-13.2-41-26.4-82-39.6-123.1C16.3,54.1,8.9,31.1,1.4,8.2C1.1,7.2,0.5,6.3,0,5.4C0,4.6,0,3.9,0,3.2z"></path> <path d="M1908.8,0c4.7,1.1,9.4,2,14,3.3c26.2,6.9,46.5,22,62,44.7c-7.5,5.2-14.8,10.4-22.6,15.8c-2.4-3-4.7-5.9-7-8.7 c-19.3-23.2-51.4-32.9-80.1-24.1c-29.7,9.1-51,34.8-54.1,65c-3.5,34.1,15.6,65.8,47.5,78.8c31.3,12.8,66.8,3.2,88-23.5 c3-3.8,4.9-7.7,4.5-12.8c-0.4-5.7-0.1-11.4-0.1-17.8c-23,0-45.4,0-68.2,0c0-8.8,0-17,0-25.6c31.5,0,62.9,0,94.7,0 c0,36.2,0,72.3,0,108.9c-8.2,0-16.5,0-25.5,0c0-6.1,0-12.5,0-19.8c-2,1.3-3.2,1.9-4.2,2.8c-13.1,10.5-27.8,17.1-44.3,19.8 c-0.8,0.1-1.6,0.7-2.4,1c-9.4,0-18.7,0-28.1,0c-10.9-3.5-22.3-5.9-32.5-10.8c-40-19.3-63.5-62.1-56.7-107.4 c7.1-46.9,42.4-81.8,88-88.4c1.2-0.2,2.3-0.7,3.4-1.1C1892.9,0,1900.8,0,1908.8,0z"></path> <path d="M3001,121.1c-1,4.3-2.1,8.6-3.1,12.9c-9.9,42.4-42.2,69.2-85.6,70.2c-27.4,0.6-54.8,0.1-82.1,0.1c-0.7,0-1.4-0.2-2.4-0.3 c0-66.8,0-133.5,0-200.7c4.1,0,7.9,0,11.6,0c25.9,0.2,51.9-0.7,77.8,0.9c42.8,2.7,73.5,31.2,81.6,73.4c0.6,3.3,1.5,6.6,2.2,9.9 C3001,98.7,3001,109.9,3001,121.1z M2855.5,176.3c20.6,0,40.6,1,60.5-0.3c23.4-1.5,40.4-14.1,50.3-35.5c7.6-16.5,9.2-34,6.3-51.8 c-6.1-37.5-29.9-57.6-67.7-57.6c-14.4,0-28.8,0-43.3,0c-1.9,0-3.9,0-6.1,0C2855.5,80,2855.5,128.2,2855.5,176.3z"></path> <path d="M2242.9,0c6.9,1.8,13.9,3.1,20.7,5.3c46.3,15.2,74.9,58.9,71.2,108.6c-3.4,45.8-39.9,84.8-86.7,92.7c-1,0.2-2,0.7-3,1 c-9.4,0-18.7,0-28.1,0c-9.4-2.8-19.2-4.8-28.2-8.6c-43.1-18.6-67.7-63-61.4-109.6c6.1-45.4,42.8-81.9,88.8-88.4 c1-0.1,1.9-0.7,2.9-1C2227.1,0,2235,0,2242.9,0z M2307.2,104.1c0.1-41.7-34.5-76.4-76.3-76.5c-41.7-0.1-76.5,34.6-76.6,76.3 c0,41.7,34.5,76.3,76.4,76.5C2272.4,180.6,2307.1,145.9,2307.2,104.1z"></path> <path d="M2560.8,207.6c-11.5-3.8-23.6-6.4-34.4-11.7c-39.4-19.3-61.6-63.3-55.1-107.3c6.3-42.9,40.1-78.4,82.5-86.5 c3.1-0.6,6.2-1.4,9.3-2.1c7.9,0,15.9,0,23.8,0c4.1,1,8.2,1.9,12.4,2.9c48.3,11.7,81.4,55.2,79.7,104.5c-1.7,49.7-37.7,90.7-87,99.1 c-1,0.2-2,0.7-2.9,1C2579.6,207.6,2570.2,207.6,2560.8,207.6z M2651,104.3c0.4-41.5-33.9-76.1-76.1-76.7 c-41.1-0.6-76.5,34.3-76.8,75.5c-0.3,42,34.1,76.9,76.2,77.3C2616,180.7,2650.7,146.3,2651,104.3z"></path> <path d="M484.8,176.9c38.2,0,75.8,0,113.8,0c0,9.2,0,17.9,0,27c-47.1,0-94.2,0-141.6,0c0-66.5,0-133.1,0-200.1 c47.1,0,94.1,0,141.6,0c0,8.9,0,17.8,0,27.2c-38,0-75.7,0-113.7,0c0,20.5,0,40.4,0,60.9c32.2,0,64.3,0,96.7,0c0,9.2,0,17.8,0,27 c-32.2,0-64.3,0-96.7,0C484.8,138.5,484.8,157.3,484.8,176.9z"></path> <path d="M1621.3,90.6c0,9.4,0,18.1,0,27.5c-27.2,0-54.1,0-81.8,0c0,29.6,0,58.7,0,88c-9.5,0-18.2,0-27.5,0c-0.1-2-0.3-3.9-0.3-5.8 c0-25.4-0.1-50.8,0.1-76.2c0-4.5-1.3-5.8-5.8-5.7c-23.2,0.2-46.5,0.1-69.7,0.1c-2.1,0-4.2,0-6.6,0c0-9.3,0-17.9,0-27.2 c27.2,0,54.2,0,81.9,0c0-30,0-59.3,0-88.9c9.5,0,18.4,0,27.7,0c0,29.3,0,58.5,0,88.3C1566.9,90.6,1593.9,90.6,1621.3,90.6z"></path> <path d="M1106.9,3.7c9.1,0,18,0,27.5,0c0,57.6,0,115,0,173c36.3,0,72,0,108,0c0,9.4,0,18.2,0,27.3c-45.1,0-90.1,0-135.4,0 C1106.9,137.4,1106.9,70.7,1106.9,3.7z"></path> <path d="M924.2,176.6c0,9.6,0,18.4,0,27.4c-45.2,0-90.2,0-135.5,0c0-66.6,0-133.2,0-200.2c8.8,0,17.7,0,27.1,0 c0,57.4,0,114.7,0,172.8C852.2,176.6,888.1,176.6,924.2,176.6z"></path> </g> </svg> 